:version 1.10
:name ASF
:units
  mass 1
  length 1
  angle deg
:documentation
  ASF file generated by Kaydara
:root
  axis xyz
  order  tx ty tz rx ry rz
  position 0 0 0
  orientation 0 0 0
:bonedata
  begin
    id 1
    name RightUpLegDummy
    direction -0.718183 -0.695806 0.00816078
    length 4.904
    axis 0 0 0 xyz
  end
  begin
    id 2
    name RightUpLeg
    direction 3.53373e-006 -0.995788 0.0916898
    length 17.4976
    axis -3.49089 -0.000906625 0.000286804 xyz
    dof rx ry rz
  end
  begin
    id 3
    name RightLeg
    direction 0.00371092 -0.995096 -0.0988419
    length 16.5821
    axis 3.68512 0.0193738 -0.131023 xyz
    dof rx ry rz
  end
  begin
    id 4
    name RightFoot
    direction 0.00079151 -0.46099 0.887405
    length 3.77069
    axis 4.81691e-005 -0.120479 -0.188788 xyz
    dof rx ry rz
  end
  begin
    id 5
    name RightToes
    direction 0.00124746 -0.014064 0.9999
    length 3.85082
    axis 0.000481921 0.542163 -0.142578 xyz
    dof rx ry rz
  end
  begin
    id 6
    name SpineDummy
    direction 8.3039e-015 1 4.57515e-016
    length 4.6813
    axis 0 0 0 xyz
  end
  begin
    id 7
    name Spine
    direction -3.15643e-008 0.999988 0.00495137
    length 10.1015
    axis -0.001389 0.000121418 2.40972e-006 xyz
    dof rx ry rz
  end
  begin
    id 8
    name Spine1
    direction 0 0 0
    length 0
    axis -0.001389 0.000121451 1.30017e-006 xyz
    dof rx ry rz
  end
  begin
    id 9
    name HEadDummy
    direction -1.99912e-008 0.999999 0.00127422
    length 3.43865
    axis -0.001389 0.000121451 1.30017e-006 xyz
  end
  begin
    id 10
    name HEad
    direction -0.0222688 0.980941 0.193023
    length 5.12695
    axis -0.001389 0.000121451 1.30017e-006 xyz
    dof rx ry rz
  end
  begin
    id 11
    name LeftShoulder1Dummy
    direction 0.998891 -0.0402509 -0.0244456
    length 3.5433
    axis -0.001389 0.000121451 1.30017e-006 xyz
  end
  begin
    id 12
    name LeftShoulder1
    direction 0.99951 -0.000327763 0.0313091
    length 4.05031
    axis -0.001389 0.000121451 1.30017e-006 xyz
    dof rx ry rz
  end
  begin
    id 13
    name LeftArm
    direction 0.998561 -0.00100056 -0.0536182
    length 10.3537
    axis -23.1894 0.134784 0.967509 xyz
    dof rx ry rz
  end
  begin
    id 14
    name LeftForeArm
    direction 0.998903 0.00866432 0.046012
    length 8.70632
    axis -9.91835 -0.06569 -0.177794 xyz
    dof rx ry rz
  end
  begin
    id 15
    name LeftHand
    direction 0.992938 -0.0411637 0.11126
    length 5.32135
    axis -0.00960232 -0.00340091 0.185173 xyz
    dof rx ry rz
  end
  begin
    id 16
    name RightShoulderDummy
    direction -0.998891 -0.0402509 -0.0244414
    length 3.5433
    axis -0.001389 0.000121451 1.30017e-006 xyz
  end
  begin
    id 17
    name RightShoulder
    direction -0.99951 -0.000327807 0.0313133
    length 4.05031
    axis 0.215806 0.000203643 -0.0068026 xyz
    dof rx ry rz
  end
  begin
    id 18
    name RightArm
    direction -0.998573 -0.000999564 -0.053403
    length 10.3947
    axis -23.2009 -0.134239 -0.964101 xyz
    dof rx ry rz
  end
  begin
    id 19
    name RightForeArm
    direction -0.998898 0.00868028 0.0461306
    length 8.68355
    axis -9.92322 0.0658061 0.178868 xyz
    dof rx ry rz
  end
  begin
    id 20
    name RightHand
    direction -0.992843 -0.0414603 0.112003
    length 5.28593
    axis -0.00960638 0.00330671 -0.185228 xyz
    dof rx ry rz
  end
  begin
    id 21
    name LeftUpLegDummy
    direction 0.718183 -0.695806 0.00816078
    length 4.904
    axis 0 0 0 xyz
  end
  begin
    id 22
    name LeftUpLeg
    direction -6.81752e-006 -0.995793 0.0916337
    length 17.4976
    axis -3.48766 0.00143442 -0.000524262 xyz
    dof rx ry rz
  end
  begin
    id 23
    name LeftLeg
    direction -0.00601358 -0.995091 -0.0987824
    length 16.5821
    axis 3.68178 -0.00654042 -0.000285133 xyz
    dof rx ry rz
  end
  begin
    id 24
    name LeftFoot
    direction -0.00417578 -0.460984 0.887399
    length 3.77069
    axis 1.87233e-006 4.66016e-005 -8.6538e-006 xyz
    dof rx ry rz
  end
  begin
    id 25
    name LeftToes
    direction 0.00818058 -0.00485161 0.999955
    length 3.85048
    axis 1.06247e-005 4.65869e-005 -8.65513e-006 xyz
    dof rx ry rz
  end
:hierarchy
  begin
    root RightUpLegDummy SpineDummy LeftUpLegDummy
    RightUpLegDummy RightUpLeg
    RightUpLeg RightLeg
    RightLeg RightFoot
    RightFoot RightToes
    SpineDummy Spine
    Spine Spine1
    Spine1 HEadDummy LeftShoulder1Dummy RightShoulderDummy
    HEadDummy HEad
    LeftShoulder1Dummy LeftShoulder1
    LeftShoulder1 LeftArm
    LeftArm LeftForeArm
    LeftForeArm LeftHand
    RightShoulderDummy RightShoulder
    RightShoulder RightArm
    RightArm RightForeArm
    RightForeArm RightHand
    LeftUpLegDummy LeftUpLeg
    LeftUpLeg LeftLeg
    LeftLeg LeftFoot
    LeftFoot LeftToes
  end

:SAMPLES-PER-SECOND 30
:FRAME-RANGE 1-2091
:FULLY-SPECIFIED
:DEGREES
1
root  -81.54 39.5678 -142.708 2.65929 58.6732 3.41619
RightUpLeg  3.63596 -4.22053 -1.3974
RightLeg  2.64264 -5.64994 -0.263978
RightFoot  -7.66953 -0.141672 2.7935
RightToes  5.82063e-011 0 -3.6325e-017
Spine  4.90218 2.17917 2.79304
Spine1  -1.78332 2.44744 -0.614136
HEad  6.49309 25.41 -6.77465
LeftShoulder1  1.36765 0.034981 -33.3663
LeftArm  21.7327 5.21362 -35.3844
LeftForeArm  1.71638 -10.7142 -15.2248
LeftHand  0.417597 -1.63279 -6.77794
RightShoulder  8.13541 10.3636 51.3678
RightArm  18.6299 0.314573 16.3505
RightForeArm  20.2325 2.04773 17.0458
RightHand  0.451018 3.24592 5.77744
LeftUpLeg  -4.40488 2.63644 -0.804695
LeftLeg  2.63513 -12.9547 -1.7013
LeftFoot  1.04833 0.363025 -3.40337
LeftToes  -6.27584e-011 -2.25241e-010 2.80627e-011
2
root  -81.5027 39.5364 -142.696 2.58468 58.7031 3.35951
RightUpLeg  3.44929 -4.33177 -1.43852
RightLeg  3.27429 -5.522 -0.259166
RightFoot  -8.1606 -0.133923 2.82646
RightToes  5.82063e-011 0 -3.6325e-017
Spine  5.43237 2.14722 3.00606
Spine1  -2.26347 2.44729 -0.701501
HEad  6.5754 25.3225 -7.0553
LeftShoulder1  1.37407 0.00102574 -33.1694
LeftArm  21.9525 5.42209 -35.5474
LeftForeArm  1.64847 -10.8104 -15.173
LeftHand  0.394055 -1.43877 -6.5902
RightShoulder  7.84292 9.89788 51.2467
RightArm  20.2659 0.948333 16.6064
RightForeArm  19.0704 1.72756 17.4218
RightHand  0.44456 3.5245 5.53429
LeftUpLeg  -4.87138 2.41046 -0.873399
LeftLeg  3.81505 -12.7406 -1.75247
LeftFoot  0.282191 0.344237 -3.39931
LeftToes  -6.27584e-011 -2.25241e-010 2.80627e-011
3
root  -81.4344 39.4795 -142.722 2.68765 58.8066 3.5048
RightUpLeg  3.01032 -4.75678 -1.77637
RightLeg  4.45971 -5.09648 -0.183801
RightFoot  -8.87238 -0.125389 3.02221
RightToes  5.82063e-011 0 -3.6325e-017
Spine  5.62935 1.67962 4.37049
Spine1  -2.14144 2.32209 -2.34722
HEad  6.35576 25.7516 -6.87754
LeftShoulder1  1.28604 0.147158 -32.256
LeftArm  20.9786 5.73097 -35.9547
LeftForeArm  2.29274 -10.8271 -15.0634
LeftHand  0.416073 -1.63874 -6.74641
RightShoulder  7.97256 9.95639 51.8531
RightArm  20.9754 0.975837 16.3313
RightForeArm  18.0535 2.47013 17.3362
RightHand  0.441744 3.22201 5.71441
LeftUpLeg  -5.58334 1.76289 -1.24601
LeftLeg  5.49235 -12.2071 -1.63685
LeftFoot  -0.839285 0.335053 -3.59106
LeftToes  -6.27584e-011 -2.25241e-010 2.80627e-011
4
root  -81.3484 39.3911 -142.791 2.93853 58.776 3.63216
RightUpLeg  2.20573 -5.47251 -2.30578
RightLeg  6.01698 -4.15611 0.0774457
RightFoot  -9.81865 -0.111596 3.38099
RightToes  5.82063e-011 0 -3.6325e-017
Spine  5.80493 1.59438 4.94214
Spine1  -2.17517 2.25794 -2.23731
HEad  6.09139 25.8596 -7.64387
LeftShoulder1  1.26196 0.247934 -32.6998
LeftArm  21.2574 5.82019 -35.7413
LeftForeArm  1.82901 -11.254 -14.8211
LeftHand  0.426605 -1.71069 -6.84313
RightShoulder  8.46186 10.8089 51.7558
RightArm  21.1534 0.56023 15.8613
RightForeArm  17.3031 2.24333 17.4762
RightHand  0.293144 2.94998 3.8576
LeftUpLeg  -6.8427 0.774833 -1.64713
LeftLeg  7.96398 -10.963 -1.53617
LeftFoot  -2.81365 0.331852 -4.22409
LeftToes  -6.27584e-011 -2.25241e-010 2.80627e-011
5
root  -81.2133 39.2702 -142.845 2.65945 59.3512 3.31661
RightUpLeg  1.76094 -6.14153 -2.57565
RightLeg  7.56609 -3.82849 0.345286
RightFoot  -10.9475 -0.0870645 3.71477
RightToes  5.82063e-011 0 -3.6325e-017
Spine  5.99106 1.58489 5.52307
Spine1  -2.21324 2.22288 -1.75023
HEad  5.92608 25.3654 -8.27188
LeftShoulder1  1.30748 0.138198 -32.7898
LeftArm  20.8473 5.62985 -35.9612
LeftForeArm  2.32836 -11.0448 -14.9068
LeftHand  0.423003 -1.73087 -6.78374
RightShoulder  8.62357 11.1851 51.4003
RightArm  20.3321 -0.437978 15.1778
RightForeArm  18.5019 2.49791 17.3012
RightHand  0.511498 4.35421 5.8011
LeftUpLeg  -8.43153 -0.409311 -1.61991
LeftLeg  11.4026 -8.34416 -1.49079
LeftFoot  -5.35985 0.288205 -4.89972
LeftToes  -6.27584e-011 -2.25241e-010 2.80627e-011
6
root  -81.0528 39.1574 -142.888 2.33034 59.9238 2.91173
RightUpLeg  1.43385 -6.75457 -2.82306
RightLeg  8.84393 -3.59904 0.689336
RightFoot  -11.8794 -0.0607497 4.22771
RightToes  5.82063e-011 0 -3.6325e-017
Spine  6.28002 1.57549 6.30957
Spine1  -2.3703 2.29965 -1.89903
HEad  6.02504 24.7092 -8.25517
LeftShoulder1  1.31872 0.0650423 -32.2926
LeftArm  19.8051 5.67212 -36.494
LeftForeArm  3.09705 -10.8127 -14.9508
LeftHand  0.415699 -1.73782 -6.74185
RightShoulder  8.51969 11.0531 51.2452
RightArm  21.0035 -0.885483 15.0029
RightForeArm  17.1803 2.7992 17.3567
RightHand  0.475703 3.52597 5.93757
LeftUpLeg  -10.3676 0.0238689 -1.19628
LeftLeg  15.182 -4.67924 -1.11538
LeftFoot  -7.97836 0.30068 -8.60501
LeftToes  -6.27584e-011 -2.25241e-010 2.80627e-011
7
root  -80.847 39.0853 -142.922 2.17537 60.5388 2.74779
RightUpLeg  1.46099 -7.0011 -2.96052
RightLeg  9.63939 -3.82849 0.572577
RightFoot  -12.6133 -0.0355694 4.50307
RightToes  5.82063e-011 0 -3.6325e-017
Spine  6.55307 1.73723 5.88427
Spine1  -2.50926 2.20925 -0.344591
HEad  6.06431 24.3432 -8.7519
LeftShoulder1  1.35275 0.0484843 -33.091
LeftArm  20.0109 5.72278 -36.1369
LeftForeArm  2.4949 -11.09 -14.8159
LeftHand  0.412949 -1.6246 -6.70971
RightShoulder  8.18369 10.7344 50.3412
RightArm  20.2572 -0.86924 15.0568
RightForeArm  18.5669 1.72523 17.5403
RightHand  0.476455 3.85843 5.70947
LeftUpLeg  -12.1433 1.47932 -0.909733
LeftLeg  18.333 -2.18831 -0.48789
LeftFoot  -7.73879 0.307359 -8.29074
LeftToes  -6.27584e-011 -2.25241e-010 2.80627e-011
